# xmcd
#
# Track frame offsets: 
#        150
#        21107
#        39300
#        58525
#        75862
#        93102
#        104635
#        123497
#        144765
#        171560
#
# Disc length: 2606 seconds
#
# Revision: 0
# Processed by: cddbd v1.5.2PL0 Copyright (c) Steve Scherf et al.
# Submitted via: ExactAudioCopy v1.0b3
#
DISCID=750a2c0a
DTITLE=Ken Valdez - Approach
DYEAR=2000
DGENRE=Blues
TTITLE0=Broken
TTITLE1=American Hero
TTITLE2=Heart in Chains
TTITLE3=All On the Line
TTITLE4=Changes
TTITLE5=What You Do To Me
TTITLE6=Spanky
TTITLE7=Say Goodbye Yesterday
TTITLE8=Talk To Me
TTITLE9=Room To Move
EXTD=
EXTT0=
EXTT1=
EXTT2=
EXTT3=
EXTT4=
EXTT5=
EXTT6=
EXTT7=
EXTT8=
EXTT9=
PLAYORDER=
